<svg xmlns="http://www.w3.org/2000/svg" xmlns:xlink="http://www.w3.org/1999/xlink" width="258" height="81" viewBox="0 0 258 81">
  <defs>
    <clipPath id="clip-Artboard_2">
      <rect width="258" height="81"/>
    </clipPath>
  </defs>
  <g id="Artboard_2" data-name="Artboard – 2" clip-path="url(#clip-Artboard_2)">
    <g id="Group_2" data-name="Group 2" transform="translate(-110 -88)">
      <path id="Path_1" data-name="Path 1" d="M11.074-12l1.094,6.563L13.535-12,19.79-36.982h2.871L28.916-12l1.367,6.733L31.479-12l5.059-24.985h3.794L32.129,0H28.813L22.285-25.293l-1.094-5.913L20.1-25.293,13.638,0H10.322l-8.2-36.982H5.913ZM59.145.684A16.912,16.912,0,0,1,52.1-.752a16.666,16.666,0,0,1-5.452-3.9,17.53,17.53,0,0,1-3.521-5.759,20.219,20.219,0,0,1-1.282-7.024V-18.9a21.391,21.391,0,0,1,1.316-7.383,19.042,19.042,0,0,1,3.5-5.947A16.374,16.374,0,0,1,51.9-36.213a14.66,14.66,0,0,1,6.46-1.453,15.187,15.187,0,0,1,6.528,1.333,13.755,13.755,0,0,1,4.768,3.64,16.1,16.1,0,0,1,2.939,5.383,21.739,21.739,0,0,1,1.042,6.6v2.5H45.951v.786a16.81,16.81,0,0,0,.991,5.554,14.693,14.693,0,0,0,2.7,4.666,13.216,13.216,0,0,0,4.2,3.23,12.2,12.2,0,0,0,5.469,1.213A14.05,14.05,0,0,0,65.5-4.033a12.988,12.988,0,0,0,4.717-3.76l2.6,1.948A15.153,15.153,0,0,1,70.39-3.2a14.748,14.748,0,0,1-3.127,2.068A17.387,17.387,0,0,1,63.485.205,19.056,19.056,0,0,1,59.145.684ZM58.358-34.18a11.015,11.015,0,0,0-4.58.94,11.391,11.391,0,0,0-3.657,2.615,14.305,14.305,0,0,0-2.6,3.948,18.1,18.1,0,0,0-1.4,4.973H69.535v-.444a14.579,14.579,0,0,0-.837-4.46,12.187,12.187,0,0,0-2.187-3.845,10.838,10.838,0,0,0-3.469-2.7A10.332,10.332,0,0,0,58.358-34.18Zm51.8,16.064a28.043,28.043,0,0,1-.872,6.99,18.759,18.759,0,0,1-2.666,6.016,13.9,13.9,0,0,1-4.529,4.2A12.7,12.7,0,0,1,95.594.684,14.135,14.135,0,0,1,89.151-.769a13.112,13.112,0,0,1-4.836-4.187L84.144,0H80.315V-52.5h4.1v20.679a13.365,13.365,0,0,1,4.7-4.307,13.164,13.164,0,0,1,6.409-1.538,13.188,13.188,0,0,1,6.563,1.555,13.3,13.3,0,0,1,4.546,4.17,18.984,18.984,0,0,1,2.649,6.016,28.459,28.459,0,0,1,.872,7.092Zm-4.136-.718a26.4,26.4,0,0,0-.581-5.5,15.918,15.918,0,0,0-1.88-4.9,10.358,10.358,0,0,0-3.469-3.521,9.944,9.944,0,0,0-5.349-1.35,10.643,10.643,0,0,0-3.452.547,10.914,10.914,0,0,0-2.922,1.5,10.55,10.55,0,0,0-2.307,2.307,13.856,13.856,0,0,0-1.641,2.922V-9.57a12.037,12.037,0,0,0,1.726,2.751A10.583,10.583,0,0,0,88.536-4.7a11.5,11.5,0,0,0,2.939,1.35,11.5,11.5,0,0,0,3.333.479A9.727,9.727,0,0,0,100.054-4.2a10.466,10.466,0,0,0,3.452-3.5,15.963,15.963,0,0,0,1.914-4.9,25.679,25.679,0,0,0,.6-5.5Zm15.224-30.933L131.257-21.6l10.664-28.164h5.366V0h-4V-22.046L143.6-44.3l-11.04,29.326H129.89L119.636-43.818l.342,21.772V0h-4V-49.766ZM179.054,0a14.826,14.826,0,0,1-.581-2.512q-.205-1.384-.273-2.82a15.332,15.332,0,0,1-2.461,2.393,17,17,0,0,1-3.059,1.9A17.651,17.651,0,0,1,169.107.222a17.008,17.008,0,0,1-4,.461,15.1,15.1,0,0,1-4.836-.752,12.119,12.119,0,0,1-3.9-2.119,9.769,9.769,0,0,1-2.6-3.3,9.75,9.75,0,0,1-.94-4.324,9.922,9.922,0,0,1,1.4-5.4,10.78,10.78,0,0,1,3.794-3.606,18.424,18.424,0,0,1,5.537-2.034,32.552,32.552,0,0,1,6.6-.649h8v-4.2a8.508,8.508,0,0,0-.82-3.674,7.766,7.766,0,0,0-2.136-2.666A9.282,9.282,0,0,0,172-33.667a14.327,14.327,0,0,0-4.05-.547,13.683,13.683,0,0,0-3.777.513,10.721,10.721,0,0,0-3.179,1.47,7.821,7.821,0,0,0-2.239,2.341,6.319,6.319,0,0,0-.923,3.127l-4.1-.034a9.361,9.361,0,0,1,1.248-4.341,11.346,11.346,0,0,1,3.093-3.435,15.22,15.22,0,0,1,4.529-2.273,18.12,18.12,0,0,1,5.52-.82,19.645,19.645,0,0,1,5.52.752,12.95,12.95,0,0,1,4.478,2.256,10.831,10.831,0,0,1,3.008,3.76,12.1,12.1,0,0,1,1.145,5.264v17.91A21.855,21.855,0,0,0,182.591-4a36.094,36.094,0,0,0,.8,3.589l.034.41Zm-13.5-2.939a14.432,14.432,0,0,0,4.119-.513,14.792,14.792,0,0,0,3.606-1.521A13.162,13.162,0,0,0,176.183-7.3a10.686,10.686,0,0,0,1.982-2.957v-8.1h-7.451a32,32,0,0,0-5.2.41,15.767,15.767,0,0,0-4.409,1.35,8.139,8.139,0,0,0-3.059,2.512,6.5,6.5,0,0,0-1.145,3.931,6.5,6.5,0,0,0,.684,3.008,7,7,0,0,0,1.846,2.273,8.233,8.233,0,0,0,2.734,1.436A11.2,11.2,0,0,0,165.553-2.939Zm23.6-15.894a26.963,26.963,0,0,1,.923-7.092,19.146,19.146,0,0,1,2.751-6.016,13.831,13.831,0,0,1,4.58-4.17,12.947,12.947,0,0,1,6.477-1.555,13.06,13.06,0,0,1,6.306,1.5,13.376,13.376,0,0,1,4.666,4.2V-52.5h4.067V0h-3.828l-.171-4.819a13.159,13.159,0,0,1-4.785,4.084A13.941,13.941,0,0,1,203.813.684,12.584,12.584,0,0,1,197.4-.906a14.182,14.182,0,0,1-4.58-4.2,19.146,19.146,0,0,1-2.751-6.016,26.571,26.571,0,0,1-.923-6.99Zm4.136.718a25.679,25.679,0,0,0,.6,5.5,15.706,15.706,0,0,0,1.931,4.9A10.567,10.567,0,0,0,199.3-4.2a9.815,9.815,0,0,0,5.264,1.333,11.952,11.952,0,0,0,3.3-.444A10.885,10.885,0,0,0,210.735-4.6a11.06,11.06,0,0,0,2.358-2.017,11.781,11.781,0,0,0,1.76-2.649v-17.91a12.832,12.832,0,0,0-1.692-2.8,11.339,11.339,0,0,0-2.307-2.187,10.593,10.593,0,0,0-2.871-1.436,10.739,10.739,0,0,0-3.35-.513,9.787,9.787,0,0,0-5.3,1.35,10.888,10.888,0,0,0-3.5,3.521,15.459,15.459,0,0,0-1.948,4.9,25.679,25.679,0,0,0-.6,5.5ZM242.929.684a16.912,16.912,0,0,1-7.041-1.436,16.666,16.666,0,0,1-5.452-3.9,17.53,17.53,0,0,1-3.521-5.759,20.219,20.219,0,0,1-1.282-7.024V-18.9a21.391,21.391,0,0,1,1.316-7.383,19.042,19.042,0,0,1,3.5-5.947,16.374,16.374,0,0,1,5.229-3.982,14.66,14.66,0,0,1,6.46-1.453,15.187,15.187,0,0,1,6.528,1.333,13.754,13.754,0,0,1,4.768,3.64,16.1,16.1,0,0,1,2.939,5.383,21.739,21.739,0,0,1,1.042,6.6v2.5H229.735v.786a16.81,16.81,0,0,0,.991,5.554,14.692,14.692,0,0,0,2.7,4.666,13.216,13.216,0,0,0,4.2,3.23A12.2,12.2,0,0,0,243.1-2.769a14.05,14.05,0,0,0,6.187-1.265A12.988,12.988,0,0,0,254-7.793l2.6,1.948A15.152,15.152,0,0,1,254.174-3.2a14.749,14.749,0,0,1-3.127,2.068A17.387,17.387,0,0,1,247.27.205,19.056,19.056,0,0,1,242.929.684Zm-.786-34.863a11.015,11.015,0,0,0-4.58.94,11.391,11.391,0,0,0-3.657,2.615,14.305,14.305,0,0,0-2.6,3.948,18.1,18.1,0,0,0-1.4,4.973h23.413v-.444a14.579,14.579,0,0,0-.837-4.46,12.187,12.187,0,0,0-2.187-3.845,10.838,10.838,0,0,0-3.469-2.7A10.332,10.332,0,0,0,242.143-34.18Z" transform="translate(109.881 141)"/>
      <path id="Path_2" data-name="Path 2" d="M-96.81-.21h.336V0h-4.557V-.189h.315a.786.786,0,0,0,.609-.284.761.761,0,0,0,.21-.619l-.945-10.563-4.41,9.807a8.263,8.263,0,0,0-.714,2.142h-.21l-5.376-11.655-.9,10.269a.761.761,0,0,0,.21.619.766.766,0,0,0,.588.284h.336V0h-4.074V-.21h.336a1.546,1.546,0,0,0,1.019-.357,1.464,1.464,0,0,0,.514-.966l1.575-13.461h.21l5.859,12.663,5.733-12.663h.189l1.617,13.461A1.4,1.4,0,0,0-97.5-.357,1.618,1.618,0,0,0-96.81-.21Zm15.687,0h.168V0H-85.68V-.21h.189a.786.786,0,0,0,.661-.284.89.89,0,0,0,.221-.535,1.586,1.586,0,0,0-.084-.5L-86.037-5.1h-5.67l-1.407,3.591a1.555,1.555,0,0,0-.084.493.88.88,0,0,0,.221.525.786.786,0,0,0,.661.284h.189V0h-4.221V-.21h.189A1.836,1.836,0,0,0-95.13-.546a2.411,2.411,0,0,0,.819-.987l4.746-11.3a7.686,7.686,0,0,0,.777-2.163h.189l5.628,13.461a2.27,2.27,0,0,0,.8.987A1.866,1.866,0,0,0-81.123-.21ZM-91.455-5.733h5.166l-2.52-6.741ZM-73.143.294a7.42,7.42,0,0,1-5.449-2.121,7.488,7.488,0,0,1-2.09-5.523,7.524,7.524,0,0,1,2.09-5.534,7.331,7.331,0,0,1,5.449-2.11,9.178,9.178,0,0,1,5.1,1.428l.42,2.961h-.189a4.675,4.675,0,0,0-1.858-2.783,5.918,5.918,0,0,0-3.476-.977,5.4,5.4,0,0,0-4.315,1.932A7.56,7.56,0,0,0-79.107-7.35a7.518,7.518,0,0,0,1.648,5.072A5.474,5.474,0,0,0-73.143-.336a7.024,7.024,0,0,0,2.594-.483A6.741,6.741,0,0,0-68.4-2.163V-5.88a.873.873,0,0,0-.284-.7,1.177,1.177,0,0,0-.787-.241H-69.8v-.21h4.116v.21H-66a1.17,1.17,0,0,0-.8.241.835.835,0,0,0-.252.7v3.465a6.648,6.648,0,0,1-1.3,1.281,7.282,7.282,0,0,1-2.026,1A8.554,8.554,0,0,1-73.143.294Zm22.89-.5h.168V0H-54.81V-.21h.189a.786.786,0,0,0,.661-.284.89.89,0,0,0,.221-.535,1.586,1.586,0,0,0-.084-.5L-55.167-5.1h-5.67l-1.407,3.591a1.555,1.555,0,0,0-.084.493.88.88,0,0,0,.221.525.786.786,0,0,0,.661.284h.189V0h-4.221V-.21h.189A1.836,1.836,0,0,0-64.26-.546a2.411,2.411,0,0,0,.819-.987l4.746-11.3a7.685,7.685,0,0,0,.777-2.163h.189L-52.1-1.533a2.27,2.27,0,0,0,.8.987A1.866,1.866,0,0,0-50.253-.21ZM-60.585-5.733h5.166l-2.52-6.741ZM-38.073,0h-11V-.189l8.82-13.9h-7.077a1.274,1.274,0,0,0-.882.378,1.2,1.2,0,0,0-.357.882v.378h-.21V-15.1a5.859,5.859,0,0,0,1.113.252,8.415,8.415,0,0,0,1.124.126h6.164a8.118,8.118,0,0,0,1.575-.116,6.187,6.187,0,0,0,.651-.157v.189L-47.145-.63h6.678a2.474,2.474,0,0,0,1.827-.714,4.272,4.272,0,0,0,1.05-1.89h.21Zm2.94-.21A1.274,1.274,0,0,0-34.2-.6a1.352,1.352,0,0,0,.41-.934V-13.188a1.315,1.315,0,0,0-.41-.924,1.292,1.292,0,0,0-.934-.378h-.273v-.21h4.6v.21h-.273a1.292,1.292,0,0,0-.934.378,1.315,1.315,0,0,0-.41.924V-1.533a1.258,1.258,0,0,0,.4.934,1.309,1.309,0,0,0,.945.389h.273V0h-4.6V-.21Zm21.9-14.28a1.25,1.25,0,0,0-.9.367,1.273,1.273,0,0,0-.4.893V-2.394a17.324,17.324,0,0,0,.147,2.31l.042.378h-.189L-25.977-11.928V-1.47a1.217,1.217,0,0,0,.651,1.092,1.249,1.249,0,0,0,.63.168h.4V0h-4.326V-.21h.4a1.25,1.25,0,0,0,.9-.367,1.222,1.222,0,0,0,.378-.914v-10.9a15.989,15.989,0,0,0-.147-2.289l-.042-.336h.21L-15.477-2.793V-13.209a1.3,1.3,0,0,0-.4-.913,1.25,1.25,0,0,0-.9-.367h-.4v-.21h4.326v.21ZM-10.584-.21A1.274,1.274,0,0,0-9.649-.6a1.352,1.352,0,0,0,.41-.934v-11.76a1.347,1.347,0,0,0-.441-.851,1.29,1.29,0,0,0-.9-.346h-.252l-.021-.21H-4.7a8.781,8.781,0,0,0,1.418-.126A5.8,5.8,0,0,0-2.2-15.078v2.646h-.21v-.378a1.191,1.191,0,0,0-.347-.861,1.192,1.192,0,0,0-.829-.378H-7.875V-7.56h3.549a1.05,1.05,0,0,0,.714-.315,1,1,0,0,0,.294-.735V-8.9h.21v3.318h-.21V-5.9A.991.991,0,0,0-3.6-6.615a1.012,1.012,0,0,0-.7-.315h-3.57V-.651h3A3.581,3.581,0,0,0-2.5-1.344,5.132,5.132,0,0,0-1.134-3.4h.21L-2.142,0h-8.715V-.21Z" transform="translate(298.395 166.099)"/>
      <path id="Path_4" data-name="Path 4" d="M0,0H69V1H0Z" transform="translate(112 158)"/>
      <path id="Path_3" data-name="Path 3" d="M0,0H69V1H0Z" transform="translate(299 158)"/>
    </g>
  </g>
</svg>
