<svg xmlns="http://www.w3.org/2000/svg" xmlns:xlink="http://www.w3.org/1999/xlink" width="145" height="145" viewBox="0 0 145 145">
  <defs>
    <clipPath id="clip-Artboard_3">
      <rect width="145" height="145"/>
    </clipPath>
  </defs>
  <g id="Artboard_3" data-name="Artboard – 3" clip-path="url(#clip-Artboard_3)">
    <g id="Group_5" data-name="Group 5" transform="translate(-41 -4.538)">
      <path id="Path_5" data-name="Path 5" d="M15.284,5.757,16.892,15.4,18.9,5.757l9.2-36.73h4.221l9.2,36.73,2.01,9.9,1.759-9.9,7.436-36.73h5.577L46.235,23.393H41.362l-9.6-37.182-1.608-8.693-1.608,8.693-9.5,37.182H14.178L2.119-30.974H7.7ZM70.333-49.766l14.722,41.4,15.677-41.4h7.889V23.393h-5.879V-9.016l.452-32.71L86.965,1.385H83.045L67.972-41.023l.5,32.007V23.393H62.6V-49.766Z" transform="translate(54.881 77.303)"/>
      <g id="Group_4" data-name="Group 4" transform="translate(-494 -53)">
        <path id="Path_6" data-name="Path 6" d="M-96.81-.21h.336V0h-4.557V-.189h.315a.786.786,0,0,0,.609-.284.761.761,0,0,0,.21-.619l-.945-10.563-4.41,9.807a8.263,8.263,0,0,0-.714,2.142h-.21l-5.376-11.655-.9,10.269a.761.761,0,0,0,.21.619.766.766,0,0,0,.588.284h.336V0h-4.074V-.21h.336a1.546,1.546,0,0,0,1.019-.357,1.464,1.464,0,0,0,.514-.966l1.575-13.461h.21l5.859,12.663,5.733-12.663h.189l1.617,13.461A1.4,1.4,0,0,0-97.5-.357,1.618,1.618,0,0,0-96.81-.21Zm15.687,0h.168V0H-85.68V-.21h.189a.786.786,0,0,0,.661-.284.89.89,0,0,0,.221-.535,1.586,1.586,0,0,0-.084-.5L-86.037-5.1h-5.67l-1.407,3.591a1.555,1.555,0,0,0-.084.493.88.88,0,0,0,.221.525.786.786,0,0,0,.661.284h.189V0h-4.221V-.21h.189A1.836,1.836,0,0,0-95.13-.546a2.411,2.411,0,0,0,.819-.987l4.746-11.3a7.686,7.686,0,0,0,.777-2.163h.189l5.628,13.461a2.27,2.27,0,0,0,.8.987A1.866,1.866,0,0,0-81.123-.21ZM-91.455-5.733h5.166l-2.52-6.741ZM-73.143.294a7.42,7.42,0,0,1-5.449-2.121,7.488,7.488,0,0,1-2.09-5.523,7.524,7.524,0,0,1,2.09-5.534,7.331,7.331,0,0,1,5.449-2.11,9.178,9.178,0,0,1,5.1,1.428l.42,2.961h-.189a4.675,4.675,0,0,0-1.858-2.783,5.918,5.918,0,0,0-3.476-.977,5.4,5.4,0,0,0-4.315,1.932A7.56,7.56,0,0,0-79.107-7.35a7.518,7.518,0,0,0,1.648,5.072A5.474,5.474,0,0,0-73.143-.336a7.024,7.024,0,0,0,2.594-.483A6.741,6.741,0,0,0-68.4-2.163V-5.88a.873.873,0,0,0-.284-.7,1.177,1.177,0,0,0-.787-.241H-69.8v-.21h4.116v.21H-66a1.17,1.17,0,0,0-.8.241.835.835,0,0,0-.252.7v3.465a6.648,6.648,0,0,1-1.3,1.281,7.282,7.282,0,0,1-2.026,1A8.554,8.554,0,0,1-73.143.294Zm22.89-.5h.168V0H-54.81V-.21h.189a.786.786,0,0,0,.661-.284.89.89,0,0,0,.221-.535,1.586,1.586,0,0,0-.084-.5L-55.167-5.1h-5.67l-1.407,3.591a1.555,1.555,0,0,0-.084.493.88.88,0,0,0,.221.525.786.786,0,0,0,.661.284h.189V0h-4.221V-.21h.189A1.836,1.836,0,0,0-64.26-.546a2.411,2.411,0,0,0,.819-.987l4.746-11.3a7.685,7.685,0,0,0,.777-2.163h.189L-52.1-1.533a2.27,2.27,0,0,0,.8.987A1.866,1.866,0,0,0-50.253-.21ZM-60.585-5.733h5.166l-2.52-6.741ZM-38.073,0h-11V-.189l8.82-13.9h-7.077a1.274,1.274,0,0,0-.882.378,1.2,1.2,0,0,0-.357.882v.378h-.21V-15.1a5.859,5.859,0,0,0,1.113.252,8.415,8.415,0,0,0,1.124.126h6.164a8.118,8.118,0,0,0,1.575-.116,6.187,6.187,0,0,0,.651-.157v.189L-47.145-.63h6.678a2.474,2.474,0,0,0,1.827-.714,4.272,4.272,0,0,0,1.05-1.89h.21Zm2.94-.21A1.274,1.274,0,0,0-34.2-.6a1.352,1.352,0,0,0,.41-.934V-13.188a1.315,1.315,0,0,0-.41-.924,1.292,1.292,0,0,0-.934-.378h-.273v-.21h4.6v.21h-.273a1.292,1.292,0,0,0-.934.378,1.315,1.315,0,0,0-.41.924V-1.533a1.258,1.258,0,0,0,.4.934,1.309,1.309,0,0,0,.945.389h.273V0h-4.6V-.21Zm21.9-14.28a1.25,1.25,0,0,0-.9.367,1.273,1.273,0,0,0-.4.893V-2.394a17.324,17.324,0,0,0,.147,2.31l.042.378h-.189L-25.977-11.928V-1.47a1.217,1.217,0,0,0,.651,1.092,1.249,1.249,0,0,0,.63.168h.4V0h-4.326V-.21h.4a1.25,1.25,0,0,0,.9-.367,1.222,1.222,0,0,0,.378-.914v-10.9a15.989,15.989,0,0,0-.147-2.289l-.042-.336h.21L-15.477-2.793V-13.209a1.3,1.3,0,0,0-.4-.913,1.25,1.25,0,0,0-.9-.367h-.4v-.21h4.326v.21ZM-10.584-.21A1.274,1.274,0,0,0-9.649-.6a1.352,1.352,0,0,0,.41-.934v-11.76a1.347,1.347,0,0,0-.441-.851,1.29,1.29,0,0,0-.9-.346h-.252l-.021-.21H-4.7a8.781,8.781,0,0,0,1.418-.126A5.8,5.8,0,0,0-2.2-15.078v2.646h-.21v-.378a1.191,1.191,0,0,0-.347-.861,1.192,1.192,0,0,0-.829-.378H-7.875V-7.56h3.549a1.05,1.05,0,0,0,.714-.315,1,1,0,0,0,.294-.735V-8.9h.21v3.318h-.21V-5.9A.991.991,0,0,0-3.6-6.615a1.012,1.012,0,0,0-.7-.315h-3.57V-.651h3A3.581,3.581,0,0,0-2.5-1.344,5.132,5.132,0,0,0-1.134-3.4h.21L-2.142,0h-8.715V-.21Z" transform="translate(665.395 180.099)"/>
        <path id="Path_7" data-name="Path 7" d="M2,1.413H118.942V0H2Z" transform="translate(547 159.794)"/>
      </g>
    </g>
  </g>
</svg>
